<?xml version="1.0" standalone="no"?>
<!DOCTYPE svg PUBLIC "-//W3C//DTD SVG 20010904//EN"
 "http://www.w3.org/TR/2001/REC-SVG-20010904/DTD/svg10.dtd">
<svg version="1.0" xmlns="http://www.w3.org/2000/svg"
 width="1024.000000pt" height="1024.000000pt" viewBox="0 0 1024.000000 1024.000000"
 preserveAspectRatio="xMidYMid meet">
<metadata>
Created by potrace 1.11, written by Peter Selinger 2001-2013
</metadata>
<g transform="translate(0.000000,1024.000000) scale(0.100000,-0.100000)"
fill="#000000" stroke="none">
<path d="M4910 8915 c-279 -23 -457 -58 -697 -139 -618 -209 -1128 -614 -1481
-1178 -47 -76 -161 -299 -193 -380 -145 -363 -209 -692 -209 -1068 1 -409 77
-769 242 -1135 68 -151 118 -234 346 -581 451 -687 537 -818 737 -1124 117
-179 299 -458 405 -620 106 -162 240 -368 299 -458 293 -450 396 -601 439
-645 71 -72 172 -119 271 -125 191 -11 321 66 453 268 30 47 102 157 160 245
57 88 165 252 238 365 123 189 192 295 487 745 270 413 398 609 671 1035 83
129 194 298 246 375 297 438 452 812 523 1265 28 180 25 596 -5 790 -80 511
-275 961 -581 1340 -443 550 -1078 909 -1786 1009 -194 28 -360 32 -565 16z
m535 -524 c474 -80 867 -281 1200 -616 510 -511 730 -1243 589 -1955 -88 -443
-298 -829 -620 -1141 -318 -306 -688 -495 -1135 -580 -145 -27 -466 -37 -620
-19 -556 64 -1033 314 -1408 740 -336 381 -531 902 -531 1422 0 334 84 688
232 982 177 352 482 680 820 883 252 151 550 256 833 292 44 6 94 13 110 15
76 11 415 -4 530 -23z"/>
<path d="M5526 7562 c-8 -13 43 -78 93 -117 24 -19 69 -47 100 -61 31 -14 84
-40 118 -56 73 -34 151 -106 183 -169 26 -50 50 -131 50 -170 0 -49 -66 -161
-135 -229 l-66 -65 -177 -3 c-97 -2 -285 1 -417 6 -206 9 -249 13 -300 32 -33
12 -91 30 -129 40 -37 10 -78 28 -90 39 -12 12 -50 32 -83 45 -123 48 -187
107 -253 236 -43 82 -166 232 -233 283 -20 15 -50 30 -66 33 -31 6 -184 -19
-233 -38 -35 -13 -98 -82 -98 -106 0 -27 -28 -49 -132 -101 -105 -52 -112 -64
-79 -127 12 -21 21 -48 21 -60 0 -27 49 -95 89 -123 84 -60 167 -81 222 -57
14 6 21 -5 37 -61 12 -37 33 -83 46 -102 25 -34 26 -39 25 -192 0 -129 3 -164
17 -191 28 -56 104 -159 174 -238 37 -41 72 -85 79 -97 14 -26 44 -510 36
-564 -4 -20 -15 -50 -25 -67 -16 -26 -26 -32 -55 -32 -26 0 -43 -7 -60 -26
-38 -41 -32 -48 33 -40 44 4 53 3 38 -5 -56 -34 -73 -72 -38 -84 38 -12 155
13 197 42 53 37 138 199 132 253 -6 49 49 421 63 430 7 4 109 10 228 14 176 6
227 11 272 27 30 11 98 26 150 34 53 8 118 24 145 36 66 30 162 31 225 2 89
-40 530 -421 592 -511 36 -52 50 -131 27 -148 -8 -6 -35 -18 -62 -28 -73 -27
-84 -70 -21 -82 27 -5 34 -10 28 -23 -15 -38 -15 -52 1 -77 16 -25 21 -26 82
-22 61 4 68 7 100 42 33 36 35 40 29 94 -3 31 -8 111 -12 177 -11 205 -40 273
-161 373 -35 30 -70 64 -78 76 -22 33 -55 286 -54 415 0 132 -15 189 -67 250
-43 49 -41 71 12 152 42 63 103 191 128 267 13 39 17 76 14 140 -3 75 -8 97
-37 156 -39 79 -125 171 -191 204 -25 12 -99 43 -165 68 -97 38 -219 90 -257
111 -4 2 -9 -1 -12 -5z"/>
</g>
</svg>
